# Blender 4.4.1
# www.blender.org
mtllib JumpItem.mtl
o 立方体.003
v 0.296241 -0.056222 -0.514400
v 0.296241 -0.389380 -0.336952
v 0.296241 -0.008906 0.464046
v 0.296241 -0.389380 0.464046
v -0.296241 -0.056222 -0.514400
v -0.296241 -0.389380 -0.336952
v -0.296241 -0.008906 0.464046
v -0.296241 -0.389380 0.464046
v 0.296241 -0.008906 -0.025177
v 0.296241 -0.389380 -0.025177
v -0.296241 -0.008906 -0.025177
v -0.296241 -0.389380 -0.025177
v 0.296241 -0.037045 -0.092341
v -0.296241 -0.389380 -0.092341
v 0.296241 -0.389380 -0.092341
v -0.296241 -0.037045 -0.092341
v 0.296241 -0.073012 -0.214646
v -0.296241 -0.389380 -0.214646
v 0.296241 -0.389380 -0.214646
v -0.296241 -0.073012 -0.214646
v 0.296241 -0.228949 -0.365302
v 0.296241 -0.199143 0.464046
v -0.296241 -0.199143 0.464046
v -0.296241 -0.228949 -0.365302
v -0.296241 -0.199143 -0.025177
v 0.296241 -0.199143 -0.025177
v 0.296241 -0.199143 -0.092341
v -0.296241 -0.199143 -0.092341
v 0.296241 -0.264045 -0.214646
v -0.296241 -0.199143 -0.214646
v 0.296241 -0.104024 0.464046
v -0.296241 -0.104024 0.464046
v -0.296241 -0.171775 -0.336952
v -0.296241 -0.104024 -0.025177
v 0.296241 -0.104024 -0.025177
v 0.296241 -0.104024 -0.092341
v -0.296241 -0.104024 -0.092341
v 0.296241 -0.168926 -0.214646
v -0.296241 -0.104024 -0.214646
v 0.296241 -0.171775 -0.336952
v 0.296241 -0.294262 -0.373584
v 0.296241 -0.294262 0.464046
v -0.296241 -0.294262 0.464046
v -0.296241 -0.294262 -0.373584
v -0.296241 -0.294262 -0.025177
v 0.296241 -0.294262 -0.025177
v 0.296241 -0.294262 -0.092341
v -0.296241 -0.294262 -0.092341
v 0.296241 -0.294262 -0.214646
v -0.296241 -0.294262 -0.214646
v 0.000000 -0.008906 0.464046
v 0.000000 -0.389380 0.464046
v 0.000000 -0.389380 -0.514400
v 0.000000 -0.389380 -0.025177
v 0.000000 -0.008906 -0.025177
v 0.000000 -0.389380 -0.092341
v 0.000000 -0.037045 -0.092341
v 0.000000 -0.389380 -0.214646
v 0.000000 -0.073012 -0.214646
v 0.000000 -0.228949 -0.542749
v 0.000000 -0.199143 0.464046
v 0.000000 -0.104024 0.464046
v 0.000000 -0.171775 -0.514400
v 0.000000 -0.294262 -0.551032
v 0.000000 -0.294262 0.464046
v 0.148121 -0.008906 0.464046
v 0.148121 -0.389380 -0.514400
v 0.148121 -0.008906 -0.025177
v 0.148121 -0.037045 -0.092341
v 0.148121 -0.073012 -0.214646
v 0.148121 -0.228949 -0.542749
v 0.148121 -0.171775 -0.514400
v 0.148121 -0.294262 -0.551032
v 0.148121 -0.389380 0.464046
v 0.148121 -0.389380 -0.025177
v 0.148121 -0.389380 -0.092341
v 0.148121 -0.389380 -0.214646
v 0.148121 -0.199143 0.464046
v 0.148121 -0.104024 0.464046
v 0.148121 -0.294262 0.464046
v 0.222181 -0.008906 0.464046
v 0.222181 -0.389380 -0.514400
v 0.222181 -0.008906 -0.025177
v 0.222181 -0.037045 -0.092341
v 0.222181 -0.073012 -0.214646
v 0.222181 -0.228949 -0.542749
v 0.222181 -0.171775 -0.514400
v 0.222181 -0.294262 -0.551032
v 0.222181 -0.389380 0.464046
v 0.222181 -0.389380 -0.025177
v 0.222181 -0.389380 -0.092341
v 0.222181 -0.389380 -0.214646
v 0.222181 -0.199143 0.464046
v 0.222181 -0.104024 0.464046
v 0.222181 -0.294262 0.464046
v -0.149314 -0.389380 0.464046
v -0.149314 -0.389380 -0.025177
v -0.149314 -0.389380 -0.092341
v -0.149314 -0.389380 -0.214646
v -0.149314 -0.199143 0.464046
v -0.149314 -0.104024 0.464046
v -0.149314 -0.294262 0.464046
v -0.149314 -0.008906 0.464046
v -0.149314 -0.389380 -0.514400
v -0.149314 -0.008906 -0.025177
v -0.149314 -0.037045 -0.092341
v -0.149314 -0.073012 -0.214646
v -0.149314 -0.228949 -0.542749
v -0.149314 -0.171775 -0.514400
v -0.149314 -0.294262 -0.551032
v -0.222778 -0.389380 0.464046
v -0.222778 -0.389380 -0.025177
v -0.222778 -0.389380 -0.092341
v -0.222778 -0.389380 -0.214646
v -0.222778 -0.199143 0.464046
v -0.222778 -0.104024 0.464046
v -0.222778 -0.294262 0.464046
v -0.222778 -0.008906 0.464046
v -0.222778 -0.389380 -0.514400
v -0.222778 -0.008906 -0.025177
v -0.222778 -0.037045 -0.092341
v -0.222778 -0.073012 -0.214646
v -0.222778 -0.228949 -0.542749
v -0.222778 -0.171775 -0.514400
v -0.222778 -0.294262 -0.551032
v -0.189222 -0.325986 0.388770
v -0.189222 0.506771 0.388770
v -0.189222 -0.325986 0.010326
v -0.189222 0.506771 0.010326
v 0.189222 -0.325986 0.388770
v 0.189222 0.506771 0.388770
v 0.189222 -0.325986 0.010326
v 0.189222 0.506771 0.010326
v 0.339419 -0.365424 0.103865
v 0.339419 -0.512733 0.103865
v 0.339419 -0.365424 0.503614
v 0.339419 -0.512733 0.503614
v -0.339419 -0.365424 0.103865
v -0.339419 -0.512733 0.103865
v -0.339419 -0.365424 0.503614
v -0.339419 -0.512733 0.503614
v 0.339419 -0.365424 -0.549271
v 0.339419 -0.512733 -0.549271
v 0.339419 -0.365424 -0.017596
v 0.339419 -0.512733 -0.017596
v -0.339419 -0.365424 -0.549271
v -0.339419 -0.512733 -0.549271
v -0.339419 -0.365424 -0.017596
v -0.339419 -0.512733 -0.017596
v 0.339419 -0.365424 -0.283434
v 0.339419 -0.512733 -0.283434
v -0.339419 -0.365424 -0.283434
v -0.339419 -0.512733 -0.283434
v 0.339419 -0.365424 -0.416353
v -0.339419 -0.512733 -0.416353
v 0.339419 -0.512733 -0.416353
v -0.339419 -0.365424 -0.416353
v -0.357043 -0.218100 0.117040
v -0.357043 -0.218100 0.303727
v -0.357043 -0.163999 0.117040
v -0.357043 -0.163999 0.303727
v -0.302942 -0.218100 0.117040
v -0.302942 -0.218100 0.303727
v -0.302942 -0.163999 0.117040
v -0.302942 -0.163999 0.303727
v -0.357043 -0.284393 0.237434
v -0.357043 -0.097706 0.237434
v -0.357043 -0.284393 0.183333
v -0.357043 -0.097706 0.183333
v -0.302942 -0.284393 0.237434
v -0.302942 -0.097706 0.237434
v -0.302942 -0.284393 0.183333
v -0.302942 -0.097706 0.183333
v -0.357043 -0.350710 0.414535
v -0.357043 -0.031389 0.414535
v -0.357043 -0.350710 0.331131
v -0.357043 -0.031389 0.331131
v -0.302942 -0.350710 0.414535
v -0.302942 -0.031389 0.414535
v -0.302942 -0.350710 0.331131
v -0.302942 -0.031389 0.331131
vn 1.0000 -0.0000 -0.0000
vn -0.0000 -0.0000 1.0000
vn -1.0000 -0.0000 -0.0000
vn 0.9129 -0.1467 -0.3810
vn -0.0000 -1.0000 -0.0000
vn -0.0000 1.0000 -0.0000
vn -0.0000 0.9223 -0.3864
vn -0.0000 0.9594 -0.2821
vn 0.9065 0.1876 -0.3783
vn -0.4557 0.8062 -0.3773
vn 0.9217 0.0488 -0.3847
vn -0.0000 0.1258 -0.9921
vn -0.0000 0.9498 -0.3129
vn -0.0000 0.4442 -0.8959
vn -0.0000 -0.3594 -0.9332
vn 0.4528 0.8076 -0.3779
vn -0.9229 0.0485 -0.3821
vn -0.9078 0.1863 -0.3758
vn -0.9141 -0.1457 -0.3784
vn -0.0000 -0.0000 -1.0000
vt 0.462399 0.696739
vt 0.486518 0.707887
vt 0.464155 0.756133
vt 0.440089 0.744866
vt 0.399984 0.827359
vt 0.422809 0.839882
vt 0.416328 0.851324
vt 0.394022 0.838384
vt 0.358091 0.892290
vt 0.375561 0.907975
vt 0.367161 0.917720
vt 0.348214 0.902527
vt 0.273664 0.939600
vt 0.278739 0.962822
vt 0.257523 0.969317
vt 0.253094 0.944241
vt 0.446960 0.963016
vt 0.457371 0.970865
vt 0.449505 0.981278
vt 0.427677 0.988497
vt 0.490229 0.904956
vt 0.500715 0.912750
vt 0.469528 0.954696
vt 0.459082 0.946879
vt 0.315231 0.807569
vt 0.326280 0.808717
vt 0.320314 0.847945
vt 0.312060 0.848090
vt 0.387451 0.893143
vt 0.368875 0.878851
vt 0.465456 0.690119
vt 0.489578 0.701262
vt 0.471021 0.678060
vt 0.495148 0.689198
vt 0.465225 0.960434
vt 0.454791 0.952604
vt 0.321660 0.854101
vt 0.312914 0.855495
vt 0.383391 0.898415
vt 0.365142 0.883738
vt 0.478250 0.662384
vt 0.500715 0.677132
vt 0.323349 0.864361
vt 0.314992 0.866789
vt 0.332448 0.860274
vt 0.348192 0.870910
vt 0.342143 0.878824
vt 0.327541 0.867570
vt 0.445512 0.651689
vt 0.461303 0.655567
vt 0.463358 0.674526
vt 0.439240 0.663417
vt 0.335005 0.856010
vt 0.351373 0.866341
vt 0.441348 0.678998
vt 0.417243 0.667905
vt 0.438298 0.685615
vt 0.414201 0.674523
vt 0.350331 0.817084
vt 0.372287 0.826881
vt 0.266957 0.913629
vt 0.269961 0.925338
vt 0.249843 0.927019
vt 0.248027 0.911425
vt 0.338847 0.891953
vt 0.331679 0.882632
vt 0.354878 0.805767
vt 0.377575 0.815934
vt 0.416081 0.733700
vt 0.392069 0.722651
vt 0.390096 0.663456
vt 0.368003 0.711676
vt 0.330911 0.796461
vt 0.321608 0.893602
vt 0.400266 0.660110
vt 0.414921 0.652237
vt 0.404982 0.757621
vt 0.428840 0.768825
vt 0.417487 0.792567
vt 0.393935 0.781293
vt 0.318398 0.907406
vt 0.325165 0.919674
vt 0.305492 0.929264
vt 0.299892 0.915522
vt 0.276321 0.910298
vt 0.264899 0.877522
vt 0.285989 0.872683
vt 0.295468 0.903820
vt 0.357074 0.735780
vt 0.381096 0.746638
vt 0.370280 0.770477
vt 0.346296 0.759920
vt 0.313553 0.896950
vt 0.261994 0.863649
vt 0.283487 0.859802
vt 0.403063 0.913623
vt 0.423680 0.929226
vt 0.415872 0.939528
vt 0.395245 0.923748
vt 0.260531 0.854657
vt 0.282203 0.851349
vt 0.407300 0.908040
vt 0.427938 0.923566
vt 0.256498 0.808840
vt 0.280198 0.807169
vt 0.437346 0.866157
vt 0.458695 0.881632
vt 0.396490 0.964817
vt 0.375618 0.948712
vt 0.338171 0.940008
vt 0.314974 0.951569
vt 0.452820 0.780226
vt 0.441233 0.804269
vt 0.434475 0.756863
vt 0.458506 0.768184
vt 0.244797 0.809875
vt 0.249144 0.856305
vt 0.250639 0.865712
vt 0.253614 0.880566
vt 0.386571 0.734656
vt 0.410529 0.745680
vt 0.362526 0.723728
vt 0.284470 0.936660
vt 0.280140 0.922373
vt 0.444382 0.944793
vt 0.436564 0.955176
vt 0.448658 0.939086
vt 0.479740 0.897167
vt 0.417277 0.980621
vt 0.290976 0.959790
vt 0.241494 0.883112
vt 0.238697 0.867686
vt 0.237343 0.857887
vt 0.233062 0.810946
vt 0.333846 0.913905
vt 0.348792 0.932779
vt 0.385242 0.915898
vt 0.365443 0.940687
vt 0.426858 0.858694
vt 0.397266 0.900511
vt 0.393087 0.905982
vt 0.326592 0.902860
vt 0.405845 0.816068
vt 0.382929 0.804689
vt 0.305679 0.868709
vt 0.359770 0.794226
vt 0.335790 0.784356
vt 0.303574 0.856731
vt 0.302613 0.848798
vt 0.304109 0.806914
vt 0.429052 0.828284
vt 0.204005 0.012288
vt 0.107765 0.108528
vt 0.107765 0.012288
vt 0.204005 0.108528
vt 0.107765 0.204767
vt 0.204005 0.204767
vt 0.107765 0.301007
vt 0.204005 0.301007
vt 0.107765 0.397247
vt 0.011525 0.301007
vt 0.011525 0.204767
vt 0.300245 0.204767
vt 0.204005 0.397247
vt 0.300245 0.301007
vt 0.760913 0.459421
vt 0.857152 0.459421
vt 0.857152 0.555661
vt 0.760913 0.555661
vt 0.857152 0.651901
vt 0.760913 0.651901
vt 0.857152 0.748140
vt 0.760912 0.748140
vt 0.857152 0.844380
vt 0.760912 0.844380
vt 0.664673 0.651901
vt 0.664673 0.748140
vt 0.953392 0.651901
vt 0.953392 0.748140
vt 0.516259 0.455367
vt 0.420019 0.455367
vt 0.420019 0.407247
vt 0.516259 0.407247
vt 0.420019 0.311008
vt 0.516259 0.311008
vt 0.516259 0.238828
vt 0.420019 0.238828
vt 0.420019 0.214768
vt 0.516259 0.214768
vt 0.420019 0.118528
vt 0.516259 0.118528
vt 0.612499 0.238828
vt 0.612499 0.214768
vt 0.323780 0.238828
vt 0.323780 0.214768
vt 0.323780 0.311008
vt 0.323780 0.262888
vt 0.420019 0.262888
vt 0.612499 0.311008
vt 0.516259 0.262888
vt 0.612499 0.262888
vt 0.516259 0.479427
vt 0.420019 0.479427
vt 0.516259 0.503487
vt 0.420019 0.503487
vt 0.831285 0.012288
vt 0.735045 0.108528
vt 0.735045 0.012288
vt 0.831285 0.108528
vt 0.735045 0.204767
vt 0.831285 0.204767
vt 0.735045 0.301007
vt 0.831285 0.301007
vt 0.735045 0.397247
vt 0.638806 0.301007
vt 0.638806 0.204767
vt 0.927525 0.204767
vt 0.831285 0.397247
vt 0.927525 0.301007
vt 0.227863 0.335628
vt 0.324103 0.335628
vt 0.324103 0.431868
vt 0.227863 0.431868
vt 0.324103 0.528108
vt 0.227863 0.528108
vt 0.324103 0.624347
vt 0.227863 0.624347
vt 0.324103 0.720587
vt 0.227863 0.720587
vt 0.131623 0.528108
vt 0.131623 0.624347
vt 0.420342 0.528108
vt 0.420342 0.624347
vt 0.541041 0.335628
vt 0.637281 0.335628
vt 0.637281 0.431868
vt 0.541041 0.431868
vt 0.637281 0.528107
vt 0.541041 0.528107
vt 0.637281 0.624347
vt 0.541041 0.624347
vt 0.637281 0.720587
vt 0.541041 0.720587
vt 0.444801 0.528107
vt 0.444801 0.624347
vt 0.733520 0.528107
vt 0.733520 0.624347
s 0
usemtl マテリアル.002
f 46/1/1 42/4/1 4/3/1 10/2/1
f 117/5/2 43/8/2 8/7/2 111/6/2
f 50/9/3 44/12/3 6/11/3 18/10/3
f 88/13/4 41/16/4 2/15/4 82/14/4
f 92/17/5 82/20/5 2/19/5 19/18/5
f 89/21/5 90/24/5 10/23/5 4/22/5
f 118/25/6 120/28/6 11/27/6 7/26/6
f 43/8/3 45/30/3 12/29/3 8/7/3
f 47/31/1 46/1/1 10/2/1 15/32/1
f 49/33/1 47/31/1 15/32/1 19/34/1
f 90/24/5 91/36/5 15/35/5 10/23/5
f 120/28/7 121/38/7 16/37/7 11/27/7
f 45/30/3 48/40/3 14/39/3 12/29/3
f 41/41/1 49/33/1 19/34/1 2/42/1
f 91/36/5 92/17/5 19/18/5 15/35/5
f 121/38/8 122/44/8 20/43/8 16/37/8
f 48/40/3 50/9/3 18/10/3 14/39/3
f 37/45/3 39/48/3 30/47/3 28/46/3
f 40/49/1 38/52/1 29/51/1 21/50/1
f 34/53/3 37/45/3 28/46/3 25/54/3
f 38/52/1 36/56/1 27/55/1 29/51/1
f 36/56/1 35/58/1 26/57/1 27/55/1
f 32/59/3 34/53/3 25/54/3 23/60/3
f 87/61/9 40/64/9 21/63/9 86/62/9
f 39/48/3 33/66/3 24/65/3 30/47/3
f 116/67/2 32/59/2 23/60/2 115/68/2
f 35/58/1 31/70/1 22/69/1 26/57/1
f 9/71/1 3/72/1 31/70/1 35/58/1
f 118/73/2 7/26/2 32/59/2 116/67/2
f 124/74/10 33/66/10 20/43/10 122/44/10
f 7/26/3 11/27/3 34/53/3 32/59/3
f 13/75/1 9/71/1 35/58/1 36/56/1
f 17/76/1 13/75/1 36/56/1 38/52/1
f 11/27/3 16/37/3 37/45/3 34/53/3
f 17/76/1 38/52/1 40/49/1
f 16/37/3 20/43/3 39/48/3 37/45/3
f 28/46/3 30/47/3 50/9/3 48/40/3
f 21/50/1 29/51/1 49/33/1 41/41/1
f 25/54/3 28/46/3 48/40/3 45/30/3
f 29/51/1 27/55/1 47/31/1 49/33/1
f 27/55/1 26/57/1 46/1/1 47/31/1
f 23/60/3 25/54/3 45/30/3 43/8/3
f 86/62/11 21/63/11 41/16/11 88/13/11
f 30/47/3 24/65/3 44/12/3 50/9/3
f 115/68/2 23/60/2 43/8/2 117/5/2
f 26/57/1 22/69/1 42/4/1 46/1/1
f 20/43/3 33/66/3 39/48/3
f 78/77/2 61/80/2 65/79/2 80/78/2
f 108/81/12 60/84/12 64/83/12 110/82/12
f 72/85/13 63/88/13 59/87/13 70/86/13
f 66/89/2 51/92/2 62/91/2 79/90/2
f 79/90/2 62/91/2 61/80/2 78/77/2
f 109/93/14 63/88/14 60/84/14 108/81/14
f 69/94/8 70/86/8 59/87/8 57/95/8
f 98/96/5 99/99/5 58/98/5 56/97/5
f 68/100/7 69/94/7 57/95/7 55/101/7
f 97/102/5 98/96/5 56/97/5 54/103/5
f 66/104/6 68/100/6 55/101/6 51/105/6
f 96/106/5 97/102/5 54/103/5 52/107/5
f 99/99/5 104/109/5 53/108/5 58/98/5
f 110/82/15 64/83/15 53/111/15 104/110/15
f 80/78/2 65/79/2 52/113/2 74/112/2
f 95/114/2 80/78/2 74/112/2 89/115/2
f 81/116/6 83/117/6 68/100/6 66/104/6
f 83/117/7 84/118/7 69/94/7 68/100/7
f 84/118/8 85/119/8 70/86/8 69/94/8
f 94/120/2 79/90/2 78/77/2 93/121/2
f 81/122/2 66/89/2 79/90/2 94/120/2
f 87/61/13 72/85/13 70/86/13 85/119/13
f 93/121/2 78/77/2 80/78/2 95/114/2
f 60/84/12 71/124/12 73/123/12 64/83/12
f 63/88/14 72/85/14 71/124/14 60/84/14
f 56/97/5 58/98/5 77/126/5 76/125/5
f 54/103/5 56/97/5 76/125/5 75/127/5
f 52/107/5 54/103/5 75/127/5 74/128/5
f 58/98/5 53/108/5 67/129/5 77/126/5
f 64/83/15 73/123/15 67/130/15 53/111/15
f 22/69/2 93/121/2 95/114/2 42/4/2
f 40/64/16 87/61/16 85/119/16 17/131/16
f 3/72/2 81/122/2 94/120/2 31/70/2
f 31/70/2 94/120/2 93/121/2 22/69/2
f 13/132/8 17/131/8 85/119/8 84/118/8
f 9/133/7 13/132/7 84/118/7 83/117/7
f 3/134/6 9/133/6 83/117/6 81/116/6
f 42/4/2 95/114/2 89/115/2 4/3/2
f 71/124/12 86/62/12 88/13/12 73/123/12
f 72/85/14 87/61/14 86/62/14 71/124/14
f 76/125/5 77/126/5 92/17/5 91/36/5
f 75/127/5 76/125/5 91/36/5 90/24/5
f 74/128/5 75/127/5 90/24/5 89/21/5
f 77/126/5 67/129/5 82/20/5 92/17/5
f 73/123/15 88/13/15 82/14/15 67/130/15
f 125/135/15 110/82/15 104/110/15 119/136/15
f 114/137/5 119/138/5 104/109/5 99/99/5
f 111/139/5 112/140/5 97/102/5 96/106/5
f 112/140/5 113/141/5 98/96/5 97/102/5
f 113/141/5 114/137/5 99/99/5 98/96/5
f 124/74/14 109/93/14 108/81/14 123/142/14
f 123/142/12 108/81/12 110/82/12 125/135/12
f 61/80/2 100/144/2 102/143/2 65/79/2
f 63/88/13 109/93/13 107/145/13 59/87/13
f 51/92/2 103/147/2 101/146/2 62/91/2
f 62/91/2 101/146/2 100/144/2 61/80/2
f 57/95/8 59/87/8 107/145/8 106/148/8
f 55/101/7 57/95/7 106/148/7 105/149/7
f 51/105/6 55/101/6 105/149/6 103/150/6
f 65/79/2 102/143/2 96/151/2 52/113/2
f 24/65/17 123/142/17 125/135/17 44/12/17
f 33/66/18 124/74/18 123/142/18 24/65/18
f 14/39/5 18/10/5 114/137/5 113/141/5
f 12/29/5 14/39/5 113/141/5 112/140/5
f 8/7/5 12/29/5 112/140/5 111/139/5
f 18/10/5 6/11/5 119/138/5 114/137/5
f 44/12/19 125/135/19 119/136/19 6/11/19
f 100/144/2 115/68/2 117/5/2 102/143/2
f 109/93/13 124/74/13 122/44/13 107/145/13
f 103/147/2 118/73/2 116/67/2 101/146/2
f 101/146/2 116/67/2 115/68/2 100/144/2
f 106/148/8 107/145/8 122/44/8 121/38/8
f 105/149/7 106/148/7 121/38/7 120/28/7
f 103/150/6 105/149/6 120/28/6 118/25/6
f 102/143/2 117/5/2 111/6/2 96/151/2
f 127/152/1 126/154/1 128/153/1
f 129/155/2 128/153/2 132/156/2
f 133/157/3 132/156/3 130/158/3
f 131/159/20 130/158/20 126/160/20
f 132/156/6 128/162/6 126/161/6
f 129/163/5 133/157/5 131/159/5
f 127/152/1 128/153/1 129/155/1
f 129/155/2 132/156/2 133/157/2
f 133/157/3 130/158/3 131/159/3
f 131/159/20 126/160/20 127/164/20
f 132/156/6 126/161/6 130/158/6
f 129/163/5 131/159/5 127/165/5
f 134/166/1 136/169/1 137/168/1 135/167/1
f 136/169/2 140/171/2 141/170/2 137/168/2
f 140/171/3 138/173/3 139/172/3 141/170/3
f 138/173/20 134/175/20 135/174/20 139/172/20
f 136/176/6 134/177/6 138/173/6 140/171/6
f 141/170/5 139/172/5 135/179/5 137/178/5
f 150/180/1 144/183/1 145/182/1 151/181/1
f 144/183/2 148/185/2 149/184/2 145/182/2
f 157/186/3 146/189/3 147/188/3 155/187/3
f 146/189/20 142/191/20 143/190/20 147/188/20
f 154/192/6 142/193/6 146/189/6 157/186/6
f 155/187/5 147/188/5 143/195/5 156/194/5
f 149/184/5 153/198/5 151/197/5 145/196/5
f 144/199/6 150/201/6 152/200/6 148/185/6
f 148/185/3 152/200/3 153/198/3 149/184/3
f 154/202/1 150/180/1 151/181/1 156/203/1
f 142/204/1 154/202/1 156/203/1 143/205/1
f 153/198/5 155/187/5 156/194/5 151/197/5
f 150/201/6 154/192/6 157/186/6 152/200/6
f 152/200/3 157/186/3 155/187/3 153/198/3
f 159/206/1 158/208/1 160/207/1
f 161/209/5 160/207/5 164/210/5
f 165/211/3 164/210/3 162/212/3
f 163/213/6 162/212/6 158/214/6
f 164/210/2 160/216/2 158/215/2
f 161/217/20 165/211/20 163/213/20
f 159/206/1 160/207/1 161/209/1
f 161/209/5 164/210/5 165/211/5
f 165/211/3 162/212/3 163/213/3
f 163/213/6 158/214/6 159/218/6
f 164/210/2 158/215/2 162/212/2
f 161/217/20 163/213/20 159/219/20
f 166/220/1 168/223/1 169/222/1 167/221/1
f 168/223/2 172/225/2 173/224/2 169/222/2
f 172/225/3 170/227/3 171/226/3 173/224/3
f 170/227/20 166/229/20 167/228/20 171/226/20
f 168/230/6 166/231/6 170/227/6 172/225/6
f 173/224/5 171/226/5 167/233/5 169/232/5
usemtl マテリアル.004
f 174/234/1 176/237/1 177/236/1 175/235/1
f 176/237/2 180/239/2 181/238/2 177/236/2
f 180/239/3 178/241/3 179/240/3 181/238/3
f 178/241/20 174/243/20 175/242/20 179/240/20
f 176/244/6 174/245/6 178/241/6 180/239/6
f 181/238/5 179/240/5 175/247/5 177/246/5
