# Blender 4.4.1
# www.blender.org
mtllib grab.mtl
o 立方体
v 0.155494 -0.000420 -0.000000
v 0.000000 -0.000420 -0.155494
v 0.000000 -0.000420 0.155494
v -0.155494 -0.000420 -0.000000
v -0.000000 -0.540796 0.000000
v 0.000000 0.000539 0.155494
v -0.155494 0.000539 0.000000
v 0.155494 0.000539 0.000000
v 0.000000 0.000539 -0.155494
v 0.000000 0.540915 0.000000
v 0.000476 0.001322 0.155494
v 0.000476 0.156815 0.000000
v 0.000476 -0.154172 0.000000
v 0.000476 0.001322 -0.155494
v 0.540853 0.001321 -0.000000
v -0.000477 -0.154172 -0.000002
v -0.000477 0.001323 -0.155494
v -0.000477 0.001320 0.155494
v -0.000477 0.156815 0.000002
v -0.540853 0.001322 0.000000
vn -0.0000 1.0000 -0.0000
vn -0.6929 0.1994 -0.6929
vn 0.6929 0.1994 -0.6929
vn 0.6929 0.1994 0.6929
vn -0.6929 0.1994 0.6929
vn -0.0000 -1.0000 -0.0000
vn -0.6929 -0.1994 -0.6929
vn -0.6929 -0.1994 0.6929
vn 0.6929 -0.1994 0.6929
vn 0.6929 -0.1994 -0.6929
vn -1.0000 -0.0000 -0.0000
vn -0.1994 0.6929 -0.6929
vn -0.1994 0.6929 0.6929
vn -0.1994 -0.6929 0.6929
vn -0.1994 -0.6929 -0.6929
vn 1.0000 -0.0000 -0.0000
vn 0.1994 0.6929 -0.6929
vn 0.1994 -0.6929 -0.6929
vn 0.1994 -0.6929 0.6929
vn 0.1994 0.6929 0.6929
vt 0.670077 0.250000
vt 0.829923 0.250000
vt 0.750000 0.170077
vt 0.990385 0.490385
vt 0.750000 0.329923
vt 0.509615 0.490385
vt 0.509615 0.009615
vt 0.990385 0.009615
vt 0.670077 0.750000
vt 0.829923 0.750000
vt 0.750000 0.670077
vt 0.990385 0.990385
vt 0.750000 0.829923
vt 0.509615 0.990385
vt 0.509615 0.509615
vt 0.990385 0.509615
vt 0.250000 0.170077
vt 0.250000 0.329923
vt 0.329923 0.250000
vt 0.009615 0.490385
vt 0.170077 0.250000
vt 0.009615 0.009615
vt 0.490385 0.009615
vt 0.490385 0.490385
vt 0.170077 0.750000
vt 0.329923 0.750000
vt 0.250000 0.670077
vt 0.490385 0.990385
vt 0.250000 0.829923
vt 0.009615 0.990385
vt 0.009615 0.509615
vt 0.490385 0.509615
s 0
usemtl マテリアル
f 4/1/1 1/2/1 2/3/1
f 1/2/2 5/4/2 3/5/2
f 3/5/3 5/6/3 4/1/3
f 5/7/4 2/3/4 4/1/4
f 5/8/5 1/2/5 2/3/5
f 9/9/6 6/10/6 7/11/6
f 6/10/7 10/12/7 8/13/7
f 8/13/8 10/14/8 9/9/8
f 10/15/9 7/11/9 9/9/9
f 10/16/10 6/10/10 7/11/10
f 14/17/11 11/18/11 12/19/11
f 11/18/12 15/20/12 13/21/12
f 13/21/13 15/22/13 14/17/13
f 15/23/14 12/19/14 14/17/14
f 15/24/15 11/18/15 12/19/15
f 19/25/16 16/26/16 17/27/16
f 16/26/17 20/28/17 18/29/17
f 18/29/18 20/30/18 19/25/18
f 20/31/19 17/27/19 19/25/19
f 20/32/20 16/26/20 17/27/20
f 4/1/1 3/5/1 1/2/1
f 9/9/6 8/13/6 6/10/6
f 14/17/11 13/21/11 11/18/11
f 19/25/16 18/29/16 16/26/16
